<mxfile host="app.diagrams.net" agent="Mozilla/5.0 (Windows NT 10.0; Win64; x64) AppleWebKit/537.36 (KHTML, like Gecko) Chrome/131.0.0.0 Safari/537.36" version="24.8.6">
  <diagram name="Page-1" id="aQ4ceb7yUGP1UJDvzGvE">
    <mxGraphModel dx="1750" dy="928" grid="1" gridSize="10" guides="1" tooltips="1" connect="1" arrows="1" fold="1" page="1" pageScale="1" pageWidth="3000" pageHeight="2000" math="0" shadow="0">
      <root>
        <mxCell id="0" />
        <mxCell id="1" parent="0" />
        <mxCell id="YXasqddjMeMqiiSv_MzM-35" style="edgeStyle=orthogonalEdgeStyle;rounded=0;orthogonalLoop=1;jettySize=auto;html=1;entryX=0.5;entryY=0;entryDx=0;entryDy=0;fontSize=16;" parent="1" source="YXasqddjMeMqiiSv_MzM-1" target="YXasqddjMeMqiiSv_MzM-2" edge="1">
          <mxGeometry relative="1" as="geometry">
            <Array as="points">
              <mxPoint x="1630" y="270" />
              <mxPoint x="1100" y="270" />
            </Array>
          </mxGeometry>
        </mxCell>
        <mxCell id="YXasqddjMeMqiiSv_MzM-36" style="edgeStyle=orthogonalEdgeStyle;rounded=0;orthogonalLoop=1;jettySize=auto;html=1;exitX=0.5;exitY=1;exitDx=0;exitDy=0;entryX=0.5;entryY=0;entryDx=0;entryDy=0;fontSize=16;" parent="1" source="YXasqddjMeMqiiSv_MzM-1" target="YXasqddjMeMqiiSv_MzM-3" edge="1">
          <mxGeometry relative="1" as="geometry" />
        </mxCell>
        <mxCell id="YXasqddjMeMqiiSv_MzM-37" style="edgeStyle=orthogonalEdgeStyle;rounded=0;orthogonalLoop=1;jettySize=auto;html=1;entryX=0.5;entryY=0;entryDx=0;entryDy=0;fontSize=16;" parent="1" source="YXasqddjMeMqiiSv_MzM-1" target="YXasqddjMeMqiiSv_MzM-5" edge="1">
          <mxGeometry relative="1" as="geometry">
            <Array as="points">
              <mxPoint x="1510" y="270" />
              <mxPoint x="1920" y="270" />
            </Array>
          </mxGeometry>
        </mxCell>
        <mxCell id="YXasqddjMeMqiiSv_MzM-1" value="5" style="ellipse;whiteSpace=wrap;html=1;aspect=fixed;fontSize=16;fillColor=#d5e8d4;strokeColor=#82b366;" parent="1" vertex="1">
          <mxGeometry x="1590" y="80" width="80" height="80" as="geometry" />
        </mxCell>
        <mxCell id="YXasqddjMeMqiiSv_MzM-40" style="edgeStyle=orthogonalEdgeStyle;rounded=0;orthogonalLoop=1;jettySize=auto;html=1;entryX=0.5;entryY=0;entryDx=0;entryDy=0;exitX=0.5;exitY=1;exitDx=0;exitDy=0;fontSize=16;" parent="1" source="YXasqddjMeMqiiSv_MzM-2" target="YXasqddjMeMqiiSv_MzM-6" edge="1">
          <mxGeometry relative="1" as="geometry">
            <mxPoint x="1070.0002551028542" y="414.8571428571429" as="sourcePoint" />
            <Array as="points">
              <mxPoint x="1100" y="510" />
              <mxPoint x="990" y="510" />
            </Array>
          </mxGeometry>
        </mxCell>
        <mxCell id="YXasqddjMeMqiiSv_MzM-41" style="edgeStyle=orthogonalEdgeStyle;rounded=0;orthogonalLoop=1;jettySize=auto;html=1;entryX=0.5;entryY=0;entryDx=0;entryDy=0;exitX=0.5;exitY=1;exitDx=0;exitDy=0;fontSize=16;" parent="1" source="YXasqddjMeMqiiSv_MzM-2" target="YXasqddjMeMqiiSv_MzM-7" edge="1">
          <mxGeometry relative="1" as="geometry">
            <mxPoint x="1149.9997448971462" y="414.8571428571429" as="sourcePoint" />
            <Array as="points">
              <mxPoint x="1100" y="510" />
              <mxPoint x="1200" y="510" />
            </Array>
          </mxGeometry>
        </mxCell>
        <mxCell id="YXasqddjMeMqiiSv_MzM-2" value="5" style="ellipse;whiteSpace=wrap;html=1;aspect=fixed;fontSize=16;fillColor=#d5e8d4;strokeColor=#82b366;" parent="1" vertex="1">
          <mxGeometry x="1060" y="370" width="80" height="80" as="geometry" />
        </mxCell>
        <mxCell id="YXasqddjMeMqiiSv_MzM-42" style="edgeStyle=orthogonalEdgeStyle;rounded=0;orthogonalLoop=1;jettySize=auto;html=1;entryX=0.5;entryY=0;entryDx=0;entryDy=0;exitX=0.5;exitY=1;exitDx=0;exitDy=0;fontSize=16;" parent="1" source="YXasqddjMeMqiiSv_MzM-3" target="YXasqddjMeMqiiSv_MzM-8" edge="1">
          <mxGeometry relative="1" as="geometry">
            <mxPoint x="1590.0002551028547" y="414.8571428571429" as="sourcePoint" />
            <Array as="points">
              <mxPoint x="1630" y="500" />
              <mxPoint x="1470" y="500" />
            </Array>
          </mxGeometry>
        </mxCell>
        <mxCell id="YXasqddjMeMqiiSv_MzM-43" style="edgeStyle=orthogonalEdgeStyle;rounded=0;orthogonalLoop=1;jettySize=auto;html=1;entryX=0.5;entryY=0;entryDx=0;entryDy=0;fontSize=16;" parent="1" target="YXasqddjMeMqiiSv_MzM-9" edge="1">
          <mxGeometry relative="1" as="geometry">
            <mxPoint x="1630" y="454.9999999999998" as="sourcePoint" />
          </mxGeometry>
        </mxCell>
        <mxCell id="YXasqddjMeMqiiSv_MzM-44" style="edgeStyle=orthogonalEdgeStyle;rounded=0;orthogonalLoop=1;jettySize=auto;html=1;entryX=0.5;entryY=0;entryDx=0;entryDy=0;exitX=0.5;exitY=1;exitDx=0;exitDy=0;fontSize=16;" parent="1" source="YXasqddjMeMqiiSv_MzM-3" target="YXasqddjMeMqiiSv_MzM-10" edge="1">
          <mxGeometry relative="1" as="geometry">
            <mxPoint x="1669.9997448971462" y="414.8571428571429" as="sourcePoint" />
            <Array as="points">
              <mxPoint x="1630" y="500" />
              <mxPoint x="1830" y="500" />
            </Array>
          </mxGeometry>
        </mxCell>
        <mxCell id="YXasqddjMeMqiiSv_MzM-3" value="4" style="ellipse;whiteSpace=wrap;html=1;aspect=fixed;fontSize=16;fillColor=#dae8fc;strokeColor=#6c8ebf;" parent="1" vertex="1">
          <mxGeometry x="1590" y="370" width="80" height="80" as="geometry" />
        </mxCell>
        <mxCell id="YXasqddjMeMqiiSv_MzM-45" style="edgeStyle=orthogonalEdgeStyle;rounded=0;orthogonalLoop=1;jettySize=auto;html=1;entryX=0.5;entryY=0;entryDx=0;entryDy=0;exitX=0.5;exitY=1;exitDx=0;exitDy=0;fontSize=16;" parent="1" source="YXasqddjMeMqiiSv_MzM-5" target="YXasqddjMeMqiiSv_MzM-11" edge="1">
          <mxGeometry relative="1" as="geometry">
            <mxPoint x="2130" y="464.9999999999998" as="sourcePoint" />
          </mxGeometry>
        </mxCell>
        <mxCell id="YXasqddjMeMqiiSv_MzM-46" style="edgeStyle=orthogonalEdgeStyle;rounded=0;orthogonalLoop=1;jettySize=auto;html=1;entryX=0.5;entryY=0;entryDx=0;entryDy=0;exitX=0.5;exitY=1;exitDx=0;exitDy=0;fontSize=16;" parent="1" source="YXasqddjMeMqiiSv_MzM-5" target="YXasqddjMeMqiiSv_MzM-24" edge="1">
          <mxGeometry relative="1" as="geometry">
            <mxPoint x="2130" y="464.9999999999998" as="sourcePoint" />
          </mxGeometry>
        </mxCell>
        <mxCell id="YXasqddjMeMqiiSv_MzM-5" value="3" style="ellipse;whiteSpace=wrap;html=1;aspect=fixed;fontSize=16;fillColor=#dae8fc;strokeColor=#6c8ebf;" parent="1" vertex="1">
          <mxGeometry x="2110" y="380" width="80" height="80" as="geometry" />
        </mxCell>
        <mxCell id="YXasqddjMeMqiiSv_MzM-78" style="edgeStyle=orthogonalEdgeStyle;rounded=0;orthogonalLoop=1;jettySize=auto;html=1;entryX=0.5;entryY=0;entryDx=0;entryDy=0;fontSize=16;" parent="1" source="YXasqddjMeMqiiSv_MzM-6" target="YXasqddjMeMqiiSv_MzM-12" edge="1">
          <mxGeometry relative="1" as="geometry" />
        </mxCell>
        <mxCell id="YXasqddjMeMqiiSv_MzM-79" style="edgeStyle=orthogonalEdgeStyle;rounded=0;orthogonalLoop=1;jettySize=auto;html=1;entryX=0.5;entryY=0;entryDx=0;entryDy=0;fontSize=16;" parent="1" source="YXasqddjMeMqiiSv_MzM-6" target="YXasqddjMeMqiiSv_MzM-13" edge="1">
          <mxGeometry relative="1" as="geometry" />
        </mxCell>
        <mxCell id="YXasqddjMeMqiiSv_MzM-6" value="5" style="ellipse;whiteSpace=wrap;html=1;aspect=fixed;fontSize=16;fillColor=#d5e8d4;strokeColor=#82b366;" parent="1" vertex="1">
          <mxGeometry x="950" y="575" width="80" height="80" as="geometry" />
        </mxCell>
        <mxCell id="YXasqddjMeMqiiSv_MzM-80" style="edgeStyle=orthogonalEdgeStyle;rounded=0;orthogonalLoop=1;jettySize=auto;html=1;entryX=0.5;entryY=0;entryDx=0;entryDy=0;fontSize=16;" parent="1" source="YXasqddjMeMqiiSv_MzM-7" target="YXasqddjMeMqiiSv_MzM-14" edge="1">
          <mxGeometry relative="1" as="geometry" />
        </mxCell>
        <mxCell id="YXasqddjMeMqiiSv_MzM-81" style="edgeStyle=orthogonalEdgeStyle;rounded=0;orthogonalLoop=1;jettySize=auto;html=1;entryX=0.5;entryY=0;entryDx=0;entryDy=0;fontSize=16;" parent="1" source="YXasqddjMeMqiiSv_MzM-7" target="YXasqddjMeMqiiSv_MzM-15" edge="1">
          <mxGeometry relative="1" as="geometry" />
        </mxCell>
        <mxCell id="YXasqddjMeMqiiSv_MzM-7" value="6" style="ellipse;whiteSpace=wrap;html=1;aspect=fixed;fontSize=16;fillColor=#dae8fc;strokeColor=#6c8ebf;" parent="1" vertex="1">
          <mxGeometry x="1160" y="575" width="80" height="80" as="geometry" />
        </mxCell>
        <mxCell id="YXasqddjMeMqiiSv_MzM-82" style="edgeStyle=orthogonalEdgeStyle;rounded=0;orthogonalLoop=1;jettySize=auto;html=1;entryX=0.5;entryY=0;entryDx=0;entryDy=0;fontSize=16;" parent="1" source="YXasqddjMeMqiiSv_MzM-8" target="YXasqddjMeMqiiSv_MzM-16" edge="1">
          <mxGeometry relative="1" as="geometry" />
        </mxCell>
        <mxCell id="YXasqddjMeMqiiSv_MzM-83" style="edgeStyle=orthogonalEdgeStyle;rounded=0;orthogonalLoop=1;jettySize=auto;html=1;entryX=0.5;entryY=0;entryDx=0;entryDy=0;fontSize=16;" parent="1" source="YXasqddjMeMqiiSv_MzM-8" target="YXasqddjMeMqiiSv_MzM-17" edge="1">
          <mxGeometry relative="1" as="geometry" />
        </mxCell>
        <mxCell id="YXasqddjMeMqiiSv_MzM-8" value="4" style="ellipse;whiteSpace=wrap;html=1;aspect=fixed;fontSize=16;fillColor=#dae8fc;strokeColor=#6c8ebf;" parent="1" vertex="1">
          <mxGeometry x="1430" y="565" width="80" height="80" as="geometry" />
        </mxCell>
        <mxCell id="YXasqddjMeMqiiSv_MzM-84" style="edgeStyle=orthogonalEdgeStyle;rounded=0;orthogonalLoop=1;jettySize=auto;html=1;entryX=0.5;entryY=0;entryDx=0;entryDy=0;fontSize=16;" parent="1" source="YXasqddjMeMqiiSv_MzM-9" target="YXasqddjMeMqiiSv_MzM-18" edge="1">
          <mxGeometry relative="1" as="geometry" />
        </mxCell>
        <mxCell id="YXasqddjMeMqiiSv_MzM-85" style="edgeStyle=orthogonalEdgeStyle;rounded=0;orthogonalLoop=1;jettySize=auto;html=1;entryX=0.5;entryY=0;entryDx=0;entryDy=0;fontSize=16;" parent="1" source="YXasqddjMeMqiiSv_MzM-9" target="YXasqddjMeMqiiSv_MzM-19" edge="1">
          <mxGeometry relative="1" as="geometry" />
        </mxCell>
        <mxCell id="YXasqddjMeMqiiSv_MzM-9" value="" style="ellipse;whiteSpace=wrap;html=1;aspect=fixed;fontSize=16;fillColor=#f8cecc;strokeColor=#b85450;" parent="1" vertex="1">
          <mxGeometry x="1590" y="565" width="80" height="80" as="geometry" />
        </mxCell>
        <mxCell id="YXasqddjMeMqiiSv_MzM-86" style="edgeStyle=orthogonalEdgeStyle;rounded=0;orthogonalLoop=1;jettySize=auto;html=1;entryX=0.5;entryY=0;entryDx=0;entryDy=0;fontSize=16;" parent="1" source="YXasqddjMeMqiiSv_MzM-10" target="YXasqddjMeMqiiSv_MzM-20" edge="1">
          <mxGeometry relative="1" as="geometry" />
        </mxCell>
        <mxCell id="YXasqddjMeMqiiSv_MzM-87" style="edgeStyle=orthogonalEdgeStyle;rounded=0;orthogonalLoop=1;jettySize=auto;html=1;entryX=0.5;entryY=0;entryDx=0;entryDy=0;fontSize=16;" parent="1" source="YXasqddjMeMqiiSv_MzM-10" target="YXasqddjMeMqiiSv_MzM-21" edge="1">
          <mxGeometry relative="1" as="geometry" />
        </mxCell>
        <mxCell id="YXasqddjMeMqiiSv_MzM-10" value="" style="ellipse;whiteSpace=wrap;html=1;aspect=fixed;fontSize=16;fillColor=#f8cecc;strokeColor=#b85450;" parent="1" vertex="1">
          <mxGeometry x="1790" y="565" width="80" height="80" as="geometry" />
        </mxCell>
        <mxCell id="YXasqddjMeMqiiSv_MzM-88" style="edgeStyle=orthogonalEdgeStyle;rounded=0;orthogonalLoop=1;jettySize=auto;html=1;entryX=0.5;entryY=0;entryDx=0;entryDy=0;fontSize=16;" parent="1" source="YXasqddjMeMqiiSv_MzM-11" target="YXasqddjMeMqiiSv_MzM-22" edge="1">
          <mxGeometry relative="1" as="geometry" />
        </mxCell>
        <mxCell id="YXasqddjMeMqiiSv_MzM-89" style="edgeStyle=orthogonalEdgeStyle;rounded=0;orthogonalLoop=1;jettySize=auto;html=1;entryX=0.5;entryY=0;entryDx=0;entryDy=0;fontSize=16;" parent="1" source="YXasqddjMeMqiiSv_MzM-11" target="YXasqddjMeMqiiSv_MzM-23" edge="1">
          <mxGeometry relative="1" as="geometry" />
        </mxCell>
        <mxCell id="YXasqddjMeMqiiSv_MzM-11" value="3" style="ellipse;whiteSpace=wrap;html=1;aspect=fixed;fontSize=16;fillColor=#dae8fc;strokeColor=#6c8ebf;" parent="1" vertex="1">
          <mxGeometry x="2020" y="575" width="80" height="80" as="geometry" />
        </mxCell>
        <mxCell id="YXasqddjMeMqiiSv_MzM-12" value="2" style="ellipse;whiteSpace=wrap;html=1;aspect=fixed;fontSize=16;fillColor=#dae8fc;strokeColor=#6c8ebf;" parent="1" vertex="1">
          <mxGeometry x="890" y="790" width="80" height="80" as="geometry" />
        </mxCell>
        <mxCell id="YXasqddjMeMqiiSv_MzM-13" value="5" style="ellipse;whiteSpace=wrap;html=1;aspect=fixed;fontSize=16;fillColor=#d5e8d4;strokeColor=#82b366;" parent="1" vertex="1">
          <mxGeometry x="990" y="790" width="80" height="80" as="geometry" />
        </mxCell>
        <mxCell id="YXasqddjMeMqiiSv_MzM-14" value="6" style="ellipse;whiteSpace=wrap;html=1;aspect=fixed;fontSize=16;fillColor=#dae8fc;strokeColor=#6c8ebf;" parent="1" vertex="1">
          <mxGeometry x="1100" y="790" width="80" height="80" as="geometry" />
        </mxCell>
        <mxCell id="YXasqddjMeMqiiSv_MzM-15" value="1" style="ellipse;whiteSpace=wrap;html=1;aspect=fixed;fontSize=16;fillColor=#f8cecc;strokeColor=#b85450;" parent="1" vertex="1">
          <mxGeometry x="1200" y="790" width="80" height="80" as="geometry" />
        </mxCell>
        <mxCell id="YXasqddjMeMqiiSv_MzM-16" value="4" style="ellipse;whiteSpace=wrap;html=1;aspect=fixed;fontSize=16;fillColor=#d5e8d4;strokeColor=#82b366;" parent="1" vertex="1">
          <mxGeometry x="1370" y="790" width="80" height="80" as="geometry" />
        </mxCell>
        <mxCell id="YXasqddjMeMqiiSv_MzM-17" value="3" style="ellipse;whiteSpace=wrap;html=1;aspect=fixed;fontSize=16;fillColor=#dae8fc;strokeColor=#6c8ebf;" parent="1" vertex="1">
          <mxGeometry x="1460" y="790" width="80" height="80" as="geometry" />
        </mxCell>
        <mxCell id="YXasqddjMeMqiiSv_MzM-18" value="9" style="ellipse;whiteSpace=wrap;html=1;aspect=fixed;fontSize=16;fillColor=#f8cecc;strokeColor=#b85450;" parent="1" vertex="1">
          <mxGeometry x="1550" y="790" width="80" height="80" as="geometry" />
        </mxCell>
        <mxCell id="YXasqddjMeMqiiSv_MzM-19" value="2" style="ellipse;whiteSpace=wrap;html=1;aspect=fixed;fontSize=16;fillColor=#f8cecc;strokeColor=#b85450;" parent="1" vertex="1">
          <mxGeometry x="1650" y="790" width="80" height="80" as="geometry" />
        </mxCell>
        <mxCell id="YXasqddjMeMqiiSv_MzM-20" value="3" style="ellipse;whiteSpace=wrap;html=1;aspect=fixed;fontSize=16;fillColor=#f8cecc;strokeColor=#b85450;" parent="1" vertex="1">
          <mxGeometry x="1740" y="790" width="80" height="80" as="geometry" />
        </mxCell>
        <mxCell id="YXasqddjMeMqiiSv_MzM-21" value="4" style="ellipse;whiteSpace=wrap;html=1;aspect=fixed;fontSize=16;fillColor=#f8cecc;strokeColor=#b85450;" parent="1" vertex="1">
          <mxGeometry x="1850" y="790" width="80" height="80" as="geometry" />
        </mxCell>
        <mxCell id="YXasqddjMeMqiiSv_MzM-22" value="3" style="ellipse;whiteSpace=wrap;html=1;aspect=fixed;fontSize=16;fillColor=#d5e8d4;strokeColor=#82b366;" parent="1" vertex="1">
          <mxGeometry x="1960" y="790" width="80" height="80" as="geometry" />
        </mxCell>
        <mxCell id="YXasqddjMeMqiiSv_MzM-23" value="1" style="ellipse;whiteSpace=wrap;html=1;aspect=fixed;fontSize=16;fillColor=#dae8fc;strokeColor=#6c8ebf;" parent="1" vertex="1">
          <mxGeometry x="2050" y="790" width="80" height="80" as="geometry" />
        </mxCell>
        <mxCell id="YXasqddjMeMqiiSv_MzM-90" style="edgeStyle=orthogonalEdgeStyle;rounded=0;orthogonalLoop=1;jettySize=auto;html=1;entryX=0.5;entryY=0;entryDx=0;entryDy=0;fontSize=16;" parent="1" source="YXasqddjMeMqiiSv_MzM-24" target="YXasqddjMeMqiiSv_MzM-26" edge="1">
          <mxGeometry relative="1" as="geometry" />
        </mxCell>
        <mxCell id="YXasqddjMeMqiiSv_MzM-91" style="edgeStyle=orthogonalEdgeStyle;rounded=0;orthogonalLoop=1;jettySize=auto;html=1;entryX=0.5;entryY=0;entryDx=0;entryDy=0;fontSize=16;" parent="1" source="YXasqddjMeMqiiSv_MzM-24" target="YXasqddjMeMqiiSv_MzM-27" edge="1">
          <mxGeometry relative="1" as="geometry" />
        </mxCell>
        <mxCell id="YXasqddjMeMqiiSv_MzM-24" value="" style="ellipse;whiteSpace=wrap;html=1;aspect=fixed;fontSize=16;fillColor=#f8cecc;strokeColor=#b85450;" parent="1" vertex="1">
          <mxGeometry x="2190" y="575" width="80" height="80" as="geometry" />
        </mxCell>
        <mxCell id="YXasqddjMeMqiiSv_MzM-26" value="8" style="ellipse;whiteSpace=wrap;html=1;aspect=fixed;fontSize=16;fillColor=#f8cecc;strokeColor=#b85450;" parent="1" vertex="1">
          <mxGeometry x="2140" y="785" width="90" height="90" as="geometry" />
        </mxCell>
        <mxCell id="YXasqddjMeMqiiSv_MzM-27" value="7" style="ellipse;whiteSpace=wrap;html=1;aspect=fixed;fontSize=16;fillColor=#f8cecc;strokeColor=#b85450;" parent="1" vertex="1">
          <mxGeometry x="2240" y="785" width="90" height="90" as="geometry" />
        </mxCell>
        <mxCell id="AH_OcgpY5t7KIHDQSrXP-1" value="&lt;span style=&quot;text-align: left; background-color: rgb(255, 255, 255); font-size: 16px;&quot;&gt;&lt;font style=&quot;font-size: 16px;&quot; face=&quot;Arial, sans-serif&quot; color=&quot;#4d5156&quot;&gt;&lt;span style=&quot;font-size: 16px;&quot;&gt;α=-∞,&amp;nbsp;&lt;/span&gt;&lt;/font&gt;&lt;/span&gt;&lt;span style=&quot;color: rgb(95, 99, 104); font-family: Arial, sans-serif; font-size: 16px; text-align: left; background-color: rgb(255, 255, 255);&quot;&gt;β=+&lt;/span&gt;&lt;font style=&quot;font-size: 16px;&quot; face=&quot;Arial, sans-serif&quot; color=&quot;#5f6368&quot;&gt;&lt;span style=&quot;font-size: 16px;&quot;&gt;∞&lt;/span&gt;&lt;/font&gt;" style="rounded=1;whiteSpace=wrap;html=1;fontSize=16;" parent="1" vertex="1">
          <mxGeometry x="1055" y="310" width="90" height="30" as="geometry" />
        </mxCell>
        <mxCell id="AH_OcgpY5t7KIHDQSrXP-6" value="&lt;span style=&quot;text-align: left; background-color: rgb(255, 255, 255); font-size: 16px;&quot;&gt;&lt;font style=&quot;font-size: 16px;&quot; face=&quot;Arial, sans-serif&quot; color=&quot;#4d5156&quot;&gt;&lt;span style=&quot;font-size: 16px;&quot;&gt;α=-∞,&amp;nbsp;&lt;/span&gt;&lt;/font&gt;&lt;/span&gt;&lt;span style=&quot;color: rgb(95, 99, 104); font-family: Arial, sans-serif; font-size: 16px; text-align: left; background-color: rgb(255, 255, 255);&quot;&gt;β=+&lt;/span&gt;&lt;font style=&quot;font-size: 16px;&quot; face=&quot;Arial, sans-serif&quot; color=&quot;#5f6368&quot;&gt;&lt;span style=&quot;font-size: 16px;&quot;&gt;∞&lt;/span&gt;&lt;/font&gt;" style="rounded=1;whiteSpace=wrap;html=1;fontSize=16;" parent="1" vertex="1">
          <mxGeometry x="940" y="520" width="90" height="30" as="geometry" />
        </mxCell>
        <mxCell id="AH_OcgpY5t7KIHDQSrXP-9" value="&lt;span style=&quot;text-align: left; background-color: rgb(255, 255, 255); font-size: 16px;&quot;&gt;&lt;font style=&quot;font-size: 16px;&quot; face=&quot;Arial, sans-serif&quot; color=&quot;#4d5156&quot;&gt;&lt;span style=&quot;font-size: 16px;&quot;&gt;α=-∞,&amp;nbsp;&lt;/span&gt;&lt;/font&gt;&lt;/span&gt;&lt;span style=&quot;color: rgb(95, 99, 104); font-family: Arial, sans-serif; font-size: 16px; text-align: left; background-color: rgb(255, 255, 255);&quot;&gt;β=+&lt;/span&gt;&lt;font style=&quot;font-size: 16px;&quot; face=&quot;Arial, sans-serif&quot; color=&quot;#5f6368&quot;&gt;&lt;span style=&quot;font-size: 16px;&quot;&gt;∞&lt;/span&gt;&lt;/font&gt;" style="rounded=1;whiteSpace=wrap;html=1;fontSize=16;" parent="1" vertex="1">
          <mxGeometry x="880" y="730" width="90" height="30" as="geometry" />
        </mxCell>
        <mxCell id="AH_OcgpY5t7KIHDQSrXP-10" value="&lt;span style=&quot;text-align: left; background-color: rgb(255, 255, 255); font-size: 16px;&quot;&gt;&lt;font style=&quot;font-size: 16px;&quot; face=&quot;Arial, sans-serif&quot; color=&quot;#4d5156&quot;&gt;&lt;span style=&quot;font-size: 16px;&quot;&gt;α=2,&amp;nbsp;&lt;/span&gt;&lt;/font&gt;&lt;/span&gt;&lt;span style=&quot;color: rgb(95, 99, 104); font-family: Arial, sans-serif; font-size: 16px; text-align: left; background-color: rgb(255, 255, 255);&quot;&gt;β=+&lt;/span&gt;&lt;font style=&quot;font-size: 16px;&quot; face=&quot;Arial, sans-serif&quot; color=&quot;#5f6368&quot;&gt;&lt;span style=&quot;font-size: 16px;&quot;&gt;∞&lt;/span&gt;&lt;/font&gt;" style="rounded=1;whiteSpace=wrap;html=1;fontSize=16;" parent="1" vertex="1">
          <mxGeometry x="990" y="730" width="90" height="30" as="geometry" />
        </mxCell>
        <mxCell id="AH_OcgpY5t7KIHDQSrXP-13" value="&lt;span style=&quot;text-align: left; background-color: rgb(255, 255, 255); font-size: 16px;&quot;&gt;&lt;font style=&quot;font-size: 16px;&quot; face=&quot;Arial, sans-serif&quot; color=&quot;#4d5156&quot;&gt;&lt;span style=&quot;font-size: 16px;&quot;&gt;α=-∞,&amp;nbsp;&lt;/span&gt;&lt;/font&gt;&lt;/span&gt;&lt;span style=&quot;color: rgb(95, 99, 104); font-family: Arial, sans-serif; font-size: 16px; text-align: left; background-color: rgb(255, 255, 255);&quot;&gt;β=5&lt;/span&gt;" style="rounded=1;whiteSpace=wrap;html=1;fontSize=16;" parent="1" vertex="1">
          <mxGeometry x="1155" y="520" width="90" height="30" as="geometry" />
        </mxCell>
        <mxCell id="AH_OcgpY5t7KIHDQSrXP-14" value="&lt;span style=&quot;text-align: left; background-color: rgb(255, 255, 255); font-size: 16px;&quot;&gt;&lt;font style=&quot;font-size: 16px;&quot; face=&quot;Arial, sans-serif&quot; color=&quot;#4d5156&quot;&gt;&lt;span style=&quot;font-size: 16px;&quot;&gt;α=-∞,&amp;nbsp;&lt;/span&gt;&lt;/font&gt;&lt;/span&gt;&lt;span style=&quot;color: rgb(95, 99, 104); font-family: Arial, sans-serif; font-size: 16px; text-align: left; background-color: rgb(255, 255, 255);&quot;&gt;β=5&lt;/span&gt;" style="rounded=1;whiteSpace=wrap;html=1;fontSize=16;" parent="1" vertex="1">
          <mxGeometry x="1100" y="730" width="90" height="30" as="geometry" />
        </mxCell>
        <mxCell id="AH_OcgpY5t7KIHDQSrXP-16" value="" style="verticalLabelPosition=bottom;verticalAlign=top;html=1;shape=mxgraph.basic.x;fillColor=#f8cecc;strokeColor=#b85450;" parent="1" vertex="1">
          <mxGeometry x="1225" y="730" width="30" height="30" as="geometry" />
        </mxCell>
        <mxCell id="AH_OcgpY5t7KIHDQSrXP-21" value="&lt;span style=&quot;text-align: left; background-color: rgb(255, 255, 255); font-size: 16px;&quot;&gt;&lt;font style=&quot;font-size: 16px;&quot; face=&quot;Arial, sans-serif&quot; color=&quot;#4d5156&quot;&gt;&lt;span style=&quot;font-size: 16px;&quot;&gt;α=5,&amp;nbsp;&lt;/span&gt;&lt;/font&gt;&lt;/span&gt;&lt;span style=&quot;color: rgb(95, 99, 104); font-family: Arial, sans-serif; font-size: 16px; text-align: left; background-color: rgb(255, 255, 255);&quot;&gt;β=+&lt;/span&gt;&lt;font style=&quot;font-size: 16px;&quot; face=&quot;Arial, sans-serif&quot; color=&quot;#5f6368&quot;&gt;&lt;span style=&quot;font-size: 16px;&quot;&gt;∞&lt;/span&gt;&lt;/font&gt;" style="rounded=1;whiteSpace=wrap;html=1;fontSize=16;" parent="1" vertex="1">
          <mxGeometry x="1580" y="310" width="90" height="30" as="geometry" />
        </mxCell>
        <mxCell id="AH_OcgpY5t7KIHDQSrXP-22" value="&lt;span style=&quot;text-align: left; background-color: rgb(255, 255, 255); font-size: 16px;&quot;&gt;&lt;font style=&quot;font-size: 16px;&quot; face=&quot;Arial, sans-serif&quot; color=&quot;#4d5156&quot;&gt;&lt;span style=&quot;font-size: 16px;&quot;&gt;α=5,&amp;nbsp;&lt;/span&gt;&lt;/font&gt;&lt;/span&gt;&lt;span style=&quot;color: rgb(95, 99, 104); font-family: Arial, sans-serif; font-size: 16px; text-align: left; background-color: rgb(255, 255, 255);&quot;&gt;β=+&lt;/span&gt;&lt;font style=&quot;font-size: 16px;&quot; face=&quot;Arial, sans-serif&quot; color=&quot;#5f6368&quot;&gt;&lt;span style=&quot;font-size: 16px;&quot;&gt;∞&lt;/span&gt;&lt;/font&gt;" style="rounded=1;whiteSpace=wrap;html=1;fontSize=16;" parent="1" vertex="1">
          <mxGeometry x="1420" y="510" width="90" height="30" as="geometry" />
        </mxCell>
        <mxCell id="AH_OcgpY5t7KIHDQSrXP-23" value="&lt;span style=&quot;text-align: left; background-color: rgb(255, 255, 255); font-size: 16px;&quot;&gt;&lt;font style=&quot;font-size: 16px;&quot; face=&quot;Arial, sans-serif&quot; color=&quot;#4d5156&quot;&gt;&lt;span style=&quot;font-size: 16px;&quot;&gt;α=5,&amp;nbsp;&lt;/span&gt;&lt;/font&gt;&lt;/span&gt;&lt;span style=&quot;color: rgb(95, 99, 104); font-family: Arial, sans-serif; font-size: 16px; text-align: left; background-color: rgb(255, 255, 255);&quot;&gt;β=+&lt;/span&gt;&lt;font style=&quot;font-size: 16px;&quot; face=&quot;Arial, sans-serif&quot; color=&quot;#5f6368&quot;&gt;&lt;span style=&quot;font-size: 16px;&quot;&gt;∞&lt;/span&gt;&lt;/font&gt;" style="rounded=1;whiteSpace=wrap;html=1;fontSize=16;" parent="1" vertex="1">
          <mxGeometry x="1365" y="740" width="90" height="30" as="geometry" />
        </mxCell>
        <mxCell id="AH_OcgpY5t7KIHDQSrXP-24" value="&lt;span style=&quot;text-align: left; background-color: rgb(255, 255, 255); font-size: 16px;&quot;&gt;&lt;font style=&quot;font-size: 16px;&quot; face=&quot;Arial, sans-serif&quot; color=&quot;#4d5156&quot;&gt;&lt;span style=&quot;font-size: 16px;&quot;&gt;α=5,&amp;nbsp;&lt;/span&gt;&lt;/font&gt;&lt;/span&gt;&lt;span style=&quot;color: rgb(95, 99, 104); font-family: Arial, sans-serif; font-size: 16px; text-align: left; background-color: rgb(255, 255, 255);&quot;&gt;β=+&lt;/span&gt;&lt;font style=&quot;font-size: 16px;&quot; face=&quot;Arial, sans-serif&quot; color=&quot;#5f6368&quot;&gt;&lt;span style=&quot;font-size: 16px;&quot;&gt;∞&lt;/span&gt;&lt;/font&gt;" style="rounded=1;whiteSpace=wrap;html=1;fontSize=16;" parent="1" vertex="1">
          <mxGeometry x="1460" y="740" width="90" height="30" as="geometry" />
        </mxCell>
        <mxCell id="AH_OcgpY5t7KIHDQSrXP-36" value="" style="verticalLabelPosition=bottom;verticalAlign=top;html=1;shape=mxgraph.basic.x;fillColor=#f8cecc;strokeColor=#b85450;" parent="1" vertex="1">
          <mxGeometry x="1615" y="510" width="30" height="30" as="geometry" />
        </mxCell>
        <mxCell id="AH_OcgpY5t7KIHDQSrXP-42" value="&lt;span style=&quot;text-align: left; background-color: rgb(255, 255, 255); font-size: 16px;&quot;&gt;&lt;font style=&quot;font-size: 16px;&quot; face=&quot;Arial, sans-serif&quot; color=&quot;#4d5156&quot;&gt;&lt;span style=&quot;font-size: 16px;&quot;&gt;α=5,&amp;nbsp;&lt;/span&gt;&lt;/font&gt;&lt;/span&gt;&lt;span style=&quot;color: rgb(95, 99, 104); font-family: Arial, sans-serif; font-size: 16px; text-align: left; background-color: rgb(255, 255, 255);&quot;&gt;β=+&lt;/span&gt;&lt;font style=&quot;font-size: 16px;&quot; face=&quot;Arial, sans-serif&quot; color=&quot;#5f6368&quot;&gt;&lt;span style=&quot;font-size: 16px;&quot;&gt;∞&lt;/span&gt;&lt;/font&gt;" style="rounded=1;whiteSpace=wrap;html=1;fontSize=16;" parent="1" vertex="1">
          <mxGeometry x="2100" y="310" width="90" height="30" as="geometry" />
        </mxCell>
        <mxCell id="AH_OcgpY5t7KIHDQSrXP-43" value="&lt;span style=&quot;text-align: left; background-color: rgb(255, 255, 255); font-size: 16px;&quot;&gt;&lt;font style=&quot;font-size: 16px;&quot; face=&quot;Arial, sans-serif&quot; color=&quot;#4d5156&quot;&gt;&lt;span style=&quot;font-size: 16px;&quot;&gt;α=5,&amp;nbsp;&lt;/span&gt;&lt;/font&gt;&lt;/span&gt;&lt;span style=&quot;color: rgb(95, 99, 104); font-family: Arial, sans-serif; font-size: 16px; text-align: left; background-color: rgb(255, 255, 255);&quot;&gt;β=+&lt;/span&gt;&lt;font style=&quot;font-size: 16px;&quot; face=&quot;Arial, sans-serif&quot; color=&quot;#5f6368&quot;&gt;&lt;span style=&quot;font-size: 16px;&quot;&gt;∞&lt;/span&gt;&lt;/font&gt;" style="rounded=1;whiteSpace=wrap;html=1;fontSize=16;" parent="1" vertex="1">
          <mxGeometry x="2015" y="530" width="90" height="30" as="geometry" />
        </mxCell>
        <mxCell id="AH_OcgpY5t7KIHDQSrXP-44" value="&lt;span style=&quot;text-align: left; background-color: rgb(255, 255, 255); font-size: 16px;&quot;&gt;&lt;font style=&quot;font-size: 16px;&quot; face=&quot;Arial, sans-serif&quot; color=&quot;#4d5156&quot;&gt;&lt;span style=&quot;font-size: 16px;&quot;&gt;α=5,&amp;nbsp;&lt;/span&gt;&lt;/font&gt;&lt;/span&gt;&lt;span style=&quot;color: rgb(95, 99, 104); font-family: Arial, sans-serif; font-size: 16px; text-align: left; background-color: rgb(255, 255, 255);&quot;&gt;β=+&lt;/span&gt;&lt;font style=&quot;font-size: 16px;&quot; face=&quot;Arial, sans-serif&quot; color=&quot;#5f6368&quot;&gt;&lt;span style=&quot;font-size: 16px;&quot;&gt;∞&lt;/span&gt;&lt;/font&gt;" style="rounded=1;whiteSpace=wrap;html=1;fontSize=16;" parent="1" vertex="1">
          <mxGeometry x="1955" y="740" width="90" height="30" as="geometry" />
        </mxCell>
        <mxCell id="AH_OcgpY5t7KIHDQSrXP-45" value="&lt;span style=&quot;text-align: left; background-color: rgb(255, 255, 255); font-size: 16px;&quot;&gt;&lt;font style=&quot;font-size: 16px;&quot; face=&quot;Arial, sans-serif&quot; color=&quot;#4d5156&quot;&gt;&lt;span style=&quot;font-size: 16px;&quot;&gt;α=5,&amp;nbsp;&lt;/span&gt;&lt;/font&gt;&lt;/span&gt;&lt;span style=&quot;color: rgb(95, 99, 104); font-family: Arial, sans-serif; font-size: 16px; text-align: left; background-color: rgb(255, 255, 255);&quot;&gt;β=+&lt;/span&gt;&lt;font style=&quot;font-size: 16px;&quot; face=&quot;Arial, sans-serif&quot; color=&quot;#5f6368&quot;&gt;&lt;span style=&quot;font-size: 16px;&quot;&gt;∞&lt;/span&gt;&lt;/font&gt;" style="rounded=1;whiteSpace=wrap;html=1;fontSize=16;" parent="1" vertex="1">
          <mxGeometry x="2050" y="740" width="90" height="30" as="geometry" />
        </mxCell>
        <mxCell id="AH_OcgpY5t7KIHDQSrXP-48" value="" style="verticalLabelPosition=bottom;verticalAlign=top;html=1;shape=mxgraph.basic.x;fillColor=#f8cecc;strokeColor=#b85450;" parent="1" vertex="1">
          <mxGeometry x="2215" y="530" width="30" height="30" as="geometry" />
        </mxCell>
        <mxCell id="QqytqzGykB5p54eSpxil-3" value="" style="verticalLabelPosition=bottom;verticalAlign=top;html=1;shape=mxgraph.basic.x;fillColor=#f8cecc;strokeColor=#b85450;" vertex="1" parent="1">
          <mxGeometry x="1815" y="510" width="30" height="30" as="geometry" />
        </mxCell>
      </root>
    </mxGraphModel>
  </diagram>
</mxfile>
